<svg xmlns="http://www.w3.org/2000/svg" width="240" height="240" viewBox="0 0 240 240">
  <path data-id="field:tiles:0" fill="hsl(193.62, 55%, 78%)" fill-rule="evenodd" d="M75.78 120L84.48 129.39L92.71 139.83L100.09 150.88L106.34 162.06L117.95 156.69L130.42 152.08L143.22 148.48L155.77 145.99L154.26 133.28L153.73 120L154.26 106.72L155.77 94.01L143.22 91.52L130.42 87.92L117.95 83.31L106.34 77.94L100.09 89.12L92.71 100.17L84.48 110.61ZM120 40.69L127.24 41.7L134.49 41.35L141.14 39.81L146.82 37.46L150.03 42.7L154.51 47.86L160.16 52.39L166.62 55.84L160.8 72.03L158.05 82.34L155.77 94.01L143.22 91.52L130.42 87.92L117.95 83.31L106.34 77.94L111.35 67.17L115.18 57.21ZM75.78 120L67.08 111.9L58.79 105.18L44.57 95.49L47.77 88.91L49.68 81.92L50.27 75.11L49.79 68.99L55.76 67.56L62.05 64.89L68.11 60.91L73.38 55.84L86.99 66.37L95.95 72.17L106.34 77.94L100.09 89.12L92.71 100.17L84.48 110.61ZM120 40.69L113.35 38.48L107.71 35.45L103.24 32.08L99.86 28.76L96.22 31.42L91.86 33.38L87.18 34.36L82.66 34.35L81.88 39.02L80.24 44.38L77.46 50.14L73.38 55.84L86.99 66.37L95.95 72.17L106.34 77.94L111.35 67.17L115.18 57.21Z"/>
  <path data-id="field:tiles:1" fill="hsl(236.98, 55%, 78%)" fill-rule="evenodd" d="M206.79 120L202.79 124.67L199.27 130.53L196.71 137.31L195.43 144.51L178.23 143.98L167.57 144.55L155.77 145.99L154.26 133.28L153.73 120L154.26 106.72L155.77 94.01L167.57 95.45L178.23 96.02L195.43 95.49L196.71 102.69L199.27 109.47L202.79 115.33ZM200.55 72.65L196.89 70.01L193.68 66.47L191.31 62.32L189.92 58.02L185.24 58.72L179.64 58.82L173.3 57.95L166.62 55.84L160.8 72.03L158.05 82.34L155.77 94.01L167.57 95.45L178.23 96.02L195.43 95.49L195.48 88.48L196.61 82.19L198.44 76.89ZM206.79 120L210.79 116.51L214.48 114.02L220.4 111.14L219.73 108.56L219.7 105.88L220.25 103.41L221.19 101.36L217.49 98.11L215.95 95.61L214.99 92.7L207.31 94.08L195.43 95.49L196.71 102.69L199.27 109.47L202.79 115.33ZM200.55 72.65L204.23 74.35L207.59 75.25L212.82 75.6L213.19 77.75L214.08 79.81L216.93 82.83L215.11 86.94L214.73 89.7L214.99 92.7L207.31 94.08L195.43 95.49L195.48 88.48L196.61 82.19L198.44 76.89Z"/>
  <path data-id="field:tiles:2" fill="hsl(213.45, 55%, 78%)" fill-rule="evenodd" d="M75.78 120L84.48 129.39L92.71 139.83L100.09 150.88L106.34 162.06L95.95 167.83L86.99 173.63L73.38 184.16L68.11 179.09L62.05 175.11L55.76 172.44L49.79 171.01L50.27 164.89L49.68 158.08L47.77 151.09L44.57 144.51L58.79 134.82L67.08 128.1ZM27.1 153.75L28.03 156.67L28.27 159.59L27.18 164.4L29.15 165.5L31.04 167.18L32.59 169.37L33.57 171.85L40.04 170.69L44.5 170.54L49.79 171.01L50.27 164.89L49.68 158.08L47.77 151.09L44.57 144.51L34.13 150.35ZM75.78 120L67.08 111.9L58.79 105.18L44.57 95.49L40.41 101.13L35.79 105.56L31.21 108.77L27 110.96L28.41 115.25L28.92 120L28.41 124.75L27 129.04L31.21 131.23L35.79 134.44L40.41 138.87L44.57 144.51L58.79 134.82L67.08 128.1ZM27.1 153.75L25.55 151.17L23.62 149.16L19.73 146.9L20.26 142.78L19.77 140.59L18.81 138.64L22.83 135.29L25.02 132.58L27 129.04L31.21 131.23L35.79 134.44L40.41 138.87L44.57 144.51L34.13 150.35Z"/>
  <path data-id="field:tiles:3" fill="hsl(315.05, 55%, 78%)" fill-rule="evenodd" d="M120 199.31L115.18 182.79L111.35 172.83L106.34 162.06L117.95 156.69L130.42 152.08L143.22 148.48L155.77 145.99L158.05 157.66L160.8 167.97L166.62 184.16L160.16 187.61L154.51 192.14L150.03 197.3L146.82 202.54L141.14 200.19L134.49 198.65L127.24 198.3ZM159.45 212.74L161.7 211.32L164.24 210.46L166.75 210.22L169 210.48L170.94 205.95L172.85 203.72L175.32 201.91L171.63 195.03L166.62 184.16L160.16 187.61L154.51 192.14L150.03 197.3L146.82 202.54L151.38 205.27L154.89 208.01ZM120 199.31L122.33 211.05L123.39 218.78L126.45 218.8L129.31 219.48L133.54 222L135.2 220.47L137.38 219.18L139.94 218.39L142.6 218.22L143.51 211.71L144.73 207.43L146.82 202.54L141.14 200.19L134.49 198.65L127.24 198.3ZM159.45 212.74L156.5 216.39L155.43 219.64L152.45 219.86L149.9 221.44L147.13 219.44L142.6 218.22L143.51 211.71L144.73 207.43L146.82 202.54L151.38 205.27L154.89 208.01Z"/>
  <path data-id="field:tiles:4" fill="hsl(119.47, 55%, 78%)" fill-rule="evenodd" d="M49.09 45.44L48.65 47.66L47.64 49.98L46.04 52.12L43.98 53.82L47.08 59.62L48.6 63.81L49.79 68.99L55.76 67.56L62.05 64.89L68.11 60.91L73.38 55.84L64.6 47.71L59.2 42.08L56.71 43.87L54 44.99ZM63.43 32.95L67.51 32.19L69.45 31.04L71 29.52L75.44 32.31L78.69 33.56L82.66 34.35L81.88 39.02L80.24 44.38L77.46 50.14L73.38 55.84L64.6 47.71L59.2 42.08L61.17 39.8L62.48 37.35ZM49.09 45.44L48.89 41.94L48.18 39.77L49.62 38.63L50.3 37.11L52.05 37.09L54.02 36.14L55.95 38.42L59.2 42.08L56.71 43.87L54 44.99ZM63.43 32.95L60.34 32.29L58.49 31.29L57.19 32.4L55.64 32.74L55.3 34.4L54.02 36.14L55.95 38.42L59.2 42.08L61.17 39.8L62.48 37.35Z"/>
  <path data-id="field:tiles:5" fill="hsl(231.81, 55%, 78%)" fill-rule="evenodd" d="M49.09 194.56L54 195.01L56.71 196.13L59.2 197.92L64.6 192.29L73.38 184.16L68.11 179.09L62.05 175.11L55.76 172.44L49.79 171.01L48.6 176.19L47.08 180.38L43.98 186.18L46.04 187.88L47.64 190.02L48.65 192.34ZM36.19 184.49L35.05 181.72L32.77 179.78L33.81 176.53L33.57 171.85L40.04 170.69L44.5 170.54L49.79 171.01L48.6 176.19L47.08 180.38L43.98 186.18L39.6 184.5ZM49.09 194.56L45.74 195.34L43.76 196.29L42.55 195.07L41.1 194.61L40.91 193.06L39.88 191.47L41.54 189.54L43.98 186.18L46.04 187.88L47.64 190.02L48.65 192.34ZM36.19 184.49L36.09 186.86L35.52 188.37L36.5 189.28L36.92 190.47L38.3 190.59L39.88 191.47L41.54 189.54L43.98 186.18L39.6 184.5Z"/>
  <path data-id="field:tiles:6" fill="hsl(117.67, 55%, 78%)" fill-rule="evenodd" d="M200.55 167.35L198.44 163.11L196.61 157.81L195.48 151.52L195.43 144.51L178.23 143.98L167.57 144.55L155.77 145.99L158.05 157.66L160.8 167.97L166.62 184.16L173.3 182.05L179.64 181.18L185.24 181.28L189.92 181.98L191.31 177.68L193.68 173.53L196.89 169.99ZM190.91 194.56L188.98 195.57L187.3 197.06L185.31 200.7L180.83 200.24L178.09 200.73L175.32 201.91L171.63 195.03L166.62 184.16L173.3 182.05L179.64 181.18L185.24 181.28L189.92 181.98L189.45 186L189.62 189.48ZM200.55 167.35L204.62 173.12L207.73 176.38L206.04 179.42L205.88 182.4L203.1 183.46L200.73 186.01L196.67 184.06L189.92 181.98L191.31 177.68L193.68 173.53L196.89 169.99ZM190.91 194.56L194.54 193.95L197.09 194.4L198.26 192.53L200.12 191.47L199.85 189.09L200.73 186.01L196.67 184.06L189.92 181.98L189.45 186L189.62 189.48Z"/>
  <path data-id="field:tiles:7" fill="hsl(286.70, 55%, 78%)" fill-rule="evenodd" d="M206.79 120L202.79 124.67L199.27 130.53L196.71 137.31L195.43 144.51L207.31 145.92L214.99 147.3L215.95 144.39L217.49 141.89L221.19 138.64L220.25 136.59L219.7 134.12L219.73 131.44L220.4 128.86L214.48 125.98L210.79 123.49ZM226.83 130.73L226.93 132.62L227.69 133.98L226.79 135.21L226.52 136.91L224.36 137.3L221.19 138.64L220.25 136.59L219.7 134.12L219.73 131.44L220.4 128.86L224.35 130.15ZM206.79 120L210.79 116.51L214.48 114.02L220.4 111.14L222.95 115.07L225.71 117.09L225 120L225.71 122.91L222.95 124.93L220.4 128.86L214.48 125.98L210.79 123.49ZM226.83 130.73L227.59 129.08L228.64 128.18L228.27 126.97L228.54 125.66L227.19 124.77L225.71 122.91L222.95 124.93L220.4 128.86L224.35 130.15Z"/>
  <path data-id="field:tiles:8" fill="hsl(23.70, 55%, 78%)" fill-rule="evenodd" d="M120 40.69L127.24 41.7L134.49 41.35L141.14 39.81L146.82 37.46L144.73 32.57L143.51 28.29L142.6 21.78L139.94 21.61L137.38 20.82L135.2 19.53L133.54 18L129.31 20.52L126.45 21.2L123.39 21.22L122.33 28.95ZM124.09 13.38L126.24 12.99L127.67 11.97L129.11 12.8L130.94 12.88L131.65 15.05L133.54 18L129.31 20.52L126.45 21.2L123.39 21.22L123.87 16.35ZM120 40.69L113.35 38.48L107.71 35.45L103.24 32.08L99.86 28.76L102.61 25.78L104.51 22.87L106.46 18L108.61 18.32L110.85 18.1L114.6 16.33L117.95 19.33L120.46 20.54L123.39 21.22L122.33 28.95ZM124.09 13.38L122.03 12.72L120.78 11.58L119.32 12.21L117.62 12.08L116.71 13.97L114.6 16.33L117.95 19.33L120.46 20.54L123.39 21.22L123.87 16.35Z"/>
  <path data-id="field:tiles:9" fill="hsl(340.25, 55%, 78%)" fill-rule="evenodd" d="M120 199.31L115.18 182.79L111.35 172.83L106.34 162.06L95.95 167.83L86.99 173.63L73.38 184.16L77.46 189.86L80.24 195.62L81.88 200.98L82.66 205.65L87.18 205.64L91.86 206.62L96.22 208.58L99.86 211.24L103.24 207.92L107.71 204.55L113.35 201.52ZM93.49 220.86L90.07 220.19L87.2 220.96L85.32 218.65L82.17 217.18L82.76 212.71L82.66 205.65L87.18 205.64L91.86 206.62L96.22 208.58L99.86 211.24L95.63 216.89ZM120 199.31L122.33 211.05L123.39 218.78L120.46 219.46L117.95 220.67L114.6 223.67L110.85 221.9L108.61 221.68L106.46 222L104.51 217.13L102.61 214.22L99.86 211.24L103.24 207.92L107.71 204.55L113.35 201.52ZM93.49 220.86L96.01 222.83L97.19 224.91L99.32 224.68L101.37 225.5L103.16 223.64L106.46 222L104.51 217.13L102.61 214.22L99.86 211.24L95.63 216.89Z"/>
  <path data-id="field:tiles:10" fill="hsl(286.64, 55%, 78%)" fill-rule="evenodd" d="M159.45 27.26L154.89 31.99L151.38 34.73L146.82 37.46L150.03 42.7L154.51 47.86L160.16 52.39L166.62 55.84L171.63 44.97L175.32 38.09L172.85 36.28L170.94 34.05L169 29.52L166.75 29.78L164.24 29.54L161.7 28.68ZM174.11 26.9L175.64 27.92L177.3 28.09L177.85 29.75L179.36 31.34L177.79 33.88L175.32 38.09L172.85 36.28L170.94 34.05L169 29.52L172.26 28.25ZM159.45 27.26L161.9 23.89L163.21 21.72L165.04 22.21L166.58 21.91L167.46 23.14L168.99 23.92L168.71 26.09L169 29.52L166.75 29.78L164.24 29.54L161.7 28.68Z"/>
  <path data-id="field:tiles:11" fill="hsl(78.33, 55%, 78%)" fill-rule="evenodd" d="M27.1 86.25L34.13 89.65L44.57 95.49L47.77 88.91L49.68 81.92L50.27 75.11L49.79 68.99L44.5 69.46L40.04 69.31L33.57 68.15L32.59 70.63L31.04 72.82L29.15 74.5L27.18 75.6L28.27 80.41L28.03 83.33ZM23.89 71.07L24.67 69.53L24.66 68.02L26.08 67.36L27.27 65.89L29.62 66.87L33.57 68.15L32.59 70.63L31.04 72.82L29.15 74.5L27.18 75.6L25.4 72.66ZM27.1 86.25L22.62 84.29L19.86 83.16L20.15 80.99L19.62 79.32L20.86 78.21L21.5 76.49L23.79 76.49L27.18 75.6L28.27 80.41L28.03 83.33Z"/>
  <path data-id="field:tiles:12" fill="hsl(218.60, 55%, 78%)" fill-rule="evenodd" d="M225.12 93.91L224.77 95.54L225.26 97.31L223.41 98.65L221.19 101.36L217.49 98.11L215.95 95.61L214.99 92.7L219.77 91.65L222.67 90.94L223.71 92.87ZM223.35 87.24L222.31 86.05L221.9 84.38L219.82 84.11L216.93 82.83L215.11 86.94L214.73 89.7L214.99 92.7L219.77 91.65L222.67 90.94L222.65 88.78Z"/>
  <path data-id="field:tiles:13" fill="hsl(31.49, 55%, 78%)" fill-rule="evenodd" d="M13.84 120L15.46 117.5L15.89 114.05L20.32 113.24L27 110.96L28.41 115.25L28.92 120L28.41 124.75L27 129.04L20.32 126.76L15.89 125.95L15.46 122.5ZM13.17 130.73L14.05 132.68L13.9 134.88L16.23 136.01L18.81 138.64L22.83 135.29L25.02 132.58L27 129.04L20.32 126.76L15.89 125.95L14.79 128.96Z"/>
  <path data-id="field:tiles:14" fill="hsl(56.68, 55%, 78%)" fill-rule="evenodd" d="M139.98 226.74L138.54 226.26L136.84 226.53L135.79 224.6L133.54 222L135.2 220.47L137.38 219.18L139.94 218.39L142.6 218.22L142.6 222.38L142.81 224.91L141.04 225.59ZM145.79 225.85L146.83 225.12L148.16 224.97L148.59 223.42L149.9 221.44L147.13 219.44L142.6 218.22L142.6 222.38L142.81 224.91L144.61 225.13Z"/>
  <path data-id="field:tiles:15" fill="hsl(34.14, 55%, 78%)" fill-rule="evenodd" d="M225.12 146.09L223.71 147.13L222.67 149.06L219.77 148.35L214.99 147.3L215.95 144.39L217.49 141.89L221.19 138.64L223.41 141.35L225.26 142.69L224.77 144.46Z"/>
  <path data-id="field:tiles:16" fill="hsl(248.95, 55%, 78%)" fill-rule="evenodd" d="M139.98 13.26L141.04 14.41L142.81 15.09L142.6 17.62L142.6 21.78L139.94 21.61L137.38 20.82L135.2 19.53L133.54 18L135.79 15.4L136.84 13.47L138.54 13.74Z"/>
  <path data-id="field:tiles:17" fill="hsl(341.20, 55%, 78%)" fill-rule="evenodd" d="M63.43 207.05L62.48 202.65L61.17 200.2L59.2 197.92L64.6 192.29L73.38 184.16L77.46 189.86L80.24 195.62L81.88 200.98L82.66 205.65L78.69 206.44L75.44 207.69L71 210.48L69.45 208.96L67.51 207.81ZM73.06 216.31L75.2 216.85L76.79 218.28L78.96 217.29L82.17 217.18L82.76 212.71L82.66 205.65L78.69 206.44L75.44 207.69L71 210.48L72.7 213.74ZM63.43 207.05L63.2 210.07L62.7 211.91L63.92 212.73L64.53 213.85L65.82 213.76L67.25 214.35L68.56 212.77L71 210.48L69.45 208.96L67.51 207.81Z"/>
  <path data-id="field:tiles:18" fill="hsl(201.80, 55%, 78%)" fill-rule="evenodd" d="M190.91 45.44L189.62 50.52L189.45 54L189.92 58.02L185.24 58.72L179.64 58.82L173.3 57.95L166.62 55.84L171.63 44.97L175.32 38.09L178.09 39.27L180.83 39.76L185.31 39.3L187.3 42.94L188.98 44.43ZM185.36 34.09L183.9 33.19L183.1 31.83L181.41 32.02L179.36 31.34L177.79 33.88L175.32 38.09L178.09 39.27L180.83 39.76L185.31 39.3L184.98 36.16ZM190.91 45.44L192.34 42.41L193.43 40.68L192.43 39.5L192.11 38.25L190.86 38.01L189.7 37.11L188.11 38.15L185.31 39.3L187.3 42.94L188.98 44.43Z"/>
  <path data-id="field:tiles:19" fill="hsl(154.19, 55%, 78%)" fill-rule="evenodd" d="M36.19 55.51L39.6 55.5L43.98 53.82L47.08 59.62L48.6 63.81L49.79 68.99L44.5 69.46L40.04 69.31L33.57 68.15L33.81 63.47L32.77 60.22L35.05 58.28ZM28.87 60.78L28.31 62L27.3 62.76L27.62 64.11L27.27 65.89L29.62 66.87L33.57 68.15L33.81 63.47L32.77 60.22L30.48 60.85Z"/>
  <path data-id="field:tiles:20" fill="hsl(58.46, 55%, 78%)" fill-rule="evenodd" d="M200.55 72.65L196.89 70.01L193.68 66.47L191.31 62.32L189.92 58.02L196.67 55.94L200.73 53.99L203.1 56.54L205.88 57.6L206.04 60.58L207.73 63.62L204.62 66.88ZM200.55 72.65L204.23 74.35L207.59 75.25L212.82 75.6L213.36 71.96L214.58 69.68L213.17 67.98L212.73 65.89L210.39 65.41L207.73 63.62L204.62 66.88Z"/>
  <path data-id="field:tiles:21" fill="hsl(180.21, 55%, 78%)" fill-rule="evenodd" d="M49.09 45.44L48.65 47.66L47.64 49.98L46.04 52.12L43.98 53.82L41.54 50.46L39.88 48.53L40.91 46.94L41.1 45.39L42.55 44.93L43.76 43.71L45.74 44.66Z"/>
  <path data-id="field:tiles:22" fill="hsl(109.81, 55%, 78%)" fill-rule="evenodd" d="M49.09 194.56L54 195.01L56.71 196.13L59.2 197.92L55.95 201.58L54.02 203.86L52.05 202.91L50.3 202.89L49.62 201.37L48.18 200.23L48.89 198.06Z"/>
  <path data-id="field:tiles:23" fill="hsl(146.62, 55%, 78%)" fill-rule="evenodd" d="M200.55 167.35L198.44 163.11L196.61 157.81L195.48 151.52L195.43 144.51L207.31 145.92L214.99 147.3L214.73 150.3L215.11 153.06L216.93 157.17L214.08 160.19L213.19 162.25L212.82 164.4L207.59 164.75L204.23 165.65ZM218.13 165.33L218.94 164.01L220.04 163.32L219.87 162.06L220.38 160.68L218.89 159.49L216.93 157.17L214.08 160.19L213.19 162.25L212.82 164.4L216.14 164.82ZM200.55 167.35L204.62 173.12L207.73 176.38L210.39 174.59L212.73 174.11L213.17 172.02L214.58 170.32L213.36 168.04L212.82 164.4L207.59 164.75L204.23 165.65Z"/>
  <path data-id="field:tiles:24" fill="hsl(138.30, 55%, 78%)" fill-rule="evenodd" d="M27.1 153.75L28.03 156.67L28.27 159.59L27.18 164.4L23.79 163.51L21.5 163.51L20.86 161.79L19.62 160.68L20.15 159.01L19.86 156.84L22.62 155.71ZM27.1 153.75L25.55 151.17L23.62 149.16L19.73 146.9L18.15 149.64L16.62 151.08L17.28 152.67L17.13 154.24L18.6 155.08L19.86 156.84L22.62 155.71Z"/>
  <path data-id="field:tiles:25" fill="hsl(233.67, 55%, 78%)" fill-rule="evenodd" d="M159.45 212.74L161.7 211.32L164.24 210.46L166.75 210.22L169 210.48L168.71 213.91L168.99 216.08L167.46 216.86L166.58 218.09L165.04 217.79L163.21 218.28L161.9 216.11ZM159.45 212.74L156.5 216.39L155.43 219.64L157.66 220.47L158.92 221.48L160.08 220.82L161.35 220.79L161.89 219.52L163.21 218.28L161.9 216.11Z"/>
  <path data-id="field:tiles:26" fill="hsl(221.25, 55%, 78%)" fill-rule="evenodd" d="M159.45 27.26L154.89 31.99L151.38 34.73L146.82 37.46L144.73 32.57L143.51 28.29L142.6 21.78L147.13 20.56L149.9 18.56L152.45 20.14L155.43 20.36L156.5 23.61ZM159.45 27.26L161.9 23.89L163.21 21.72L161.89 20.48L161.35 19.21L160.08 19.18L158.92 18.52L157.66 19.53L155.43 20.36L156.5 23.61Z"/>
  <path data-id="field:tiles:27" fill="hsl(336.48, 55%, 78%)" fill-rule="evenodd" d="M27.1 86.25L34.13 89.65L44.57 95.49L40.41 101.13L35.79 105.56L31.21 108.77L27 110.96L25.02 107.42L22.83 104.71L18.81 101.36L19.77 99.41L20.26 97.22L19.73 93.1L23.62 90.84L25.55 88.83ZM14.88 93.91L14.48 95.32L13.61 96.25L14.09 97.45L13.97 98.99L15.87 99.75L18.81 101.36L19.77 99.41L20.26 97.22L19.73 93.1L16.78 93.82ZM27.1 86.25L22.62 84.29L19.86 83.16L18.6 84.92L17.13 85.76L17.28 87.33L16.62 88.92L18.15 90.36L19.73 93.1L23.62 90.84L25.55 88.83Z"/>
  <path data-id="field:tiles:28" fill="hsl(350.97, 55%, 78%)" fill-rule="evenodd" d="M93.49 19.14L95.63 23.11L99.86 28.76L96.22 31.42L91.86 33.38L87.18 34.36L82.66 34.35L82.76 27.29L82.17 22.82L85.32 21.35L87.2 19.04L90.07 19.81Z"/>
  <path data-id="field:tiles:29" fill="hsl(339.74, 55%, 78%)" fill-rule="evenodd" d="M23.89 168.93L25.4 167.34L27.18 164.4L29.15 165.5L31.04 167.18L32.59 169.37L33.57 171.85L29.62 173.13L27.27 174.11L26.08 172.64L24.66 171.98L24.67 170.47Z"/>
  <path data-id="field:tiles:30" fill="hsl(107.00, 55%, 78%)" fill-rule="evenodd" d="M174.11 213.1L172.26 211.75L169 210.48L170.94 205.95L172.85 203.72L175.32 201.91L177.79 206.12L179.36 208.66L177.85 210.25L177.3 211.91L175.64 212.08Z"/>
  <path data-id="field:tiles:31" fill="hsl(282.35, 55%, 78%)" fill-rule="evenodd" d="M226.83 109.27L224.35 109.85L220.4 111.14L219.73 108.56L219.7 105.88L220.25 103.41L221.19 101.36L224.36 102.7L226.52 103.09L226.79 104.79L227.69 106.02L226.93 107.38Z"/>
  <path data-id="field:tiles:32" fill="hsl(7.32, 55%, 78%)" fill-rule="evenodd" d="M124.09 226.62L123.87 223.65L123.39 218.78L126.45 218.8L129.31 219.48L133.54 222L131.65 224.95L130.94 227.12L129.11 227.2L127.67 228.03L126.24 227.01Z"/>
  <path data-id="field:tiles:33" fill="hsl(31.43, 55%, 78%)" fill-rule="evenodd" d="M109.71 11.47L108.72 12.3L107.22 12.66L107.08 14.71L106.46 18L108.61 18.32L110.85 18.1L114.6 16.33L113.01 13.74L112.33 11.97L110.86 12.02Z"/>
  <path data-id="field:tiles:34" fill="hsl(143.99, 55%, 78%)" fill-rule="evenodd" d="M109.71 228.53L110.86 227.98L112.33 228.03L113.01 226.26L114.6 223.67L110.85 221.9L108.61 221.68L106.46 222L107.08 225.29L107.22 227.34L108.72 227.7Z"/>
  <path data-id="field:tiles:35" fill="hsl(131.82, 55%, 78%)" fill-rule="evenodd" d="M223.35 152.76L222.65 151.22L222.67 149.06L219.77 148.35L214.99 147.3L214.73 150.3L215.11 153.06L216.93 157.17L219.82 155.89L221.9 155.62L222.31 153.95Z"/>
  <path data-id="field:tiles:36" fill="hsl(264.19, 55%, 78%)" fill-rule="evenodd" d="M145.79 14.15L144.61 14.87L142.81 15.09L142.6 17.62L142.6 21.78L147.13 20.56L149.9 18.56L148.59 16.58L148.16 15.03L146.83 14.88Z"/>
  <path data-id="field:tiles:37" fill="hsl(266.93, 55%, 78%)" fill-rule="evenodd" d="M13.17 109.27L14.79 111.04L15.89 114.05L20.32 113.24L27 110.96L25.02 107.42L22.83 104.71L18.81 101.36L16.23 103.99L13.9 105.12L14.05 107.32Z"/>
  <path data-id="field:tiles:38" fill="hsl(174.89, 55%, 78%)" fill-rule="evenodd" d="M73.06 23.69L72.7 26.26L71 29.52L75.44 32.31L78.69 33.56L82.66 34.35L82.76 27.29L82.17 22.82L78.96 22.71L76.79 21.72L75.2 23.15Z"/>
  <path data-id="field:tiles:39" fill="hsl(307.13, 55%, 78%)" fill-rule="evenodd" d="M28.87 179.22L30.48 179.15L32.77 179.78L33.81 176.53L33.57 171.85L29.62 173.13L27.27 174.11L27.62 175.89L27.3 177.24L28.31 178Z"/>
  <path data-id="field:tiles:40" fill="hsl(248.09, 55%, 78%)" fill-rule="evenodd" d="M185.36 205.91L184.98 203.84L185.31 200.7L180.83 200.24L178.09 200.73L175.32 201.91L177.79 206.12L179.36 208.66L181.41 207.98L183.1 208.17L183.9 206.81Z"/>
  <path data-id="field:tiles:41" fill="hsl(200.99, 55%, 78%)" fill-rule="evenodd" d="M63.43 32.95L67.51 32.19L69.45 31.04L71 29.52L68.56 27.23L67.25 25.65L65.82 26.24L64.53 26.15L63.92 27.27L62.7 28.09L63.2 29.93Z"/>
  <path data-id="field:tiles:42" fill="hsl(22.44, 55%, 78%)" fill-rule="evenodd" d="M190.91 194.56L188.98 195.57L187.3 197.06L185.31 200.7L188.11 201.85L189.7 202.89L190.86 201.99L192.11 201.75L192.43 200.5L193.43 199.32L192.34 197.59Z"/>
  <path data-id="field:tiles:43" fill="hsl(3.48, 55%, 78%)" fill-rule="evenodd" d="M63.43 207.05L62.48 202.65L61.17 200.2L59.2 197.92L55.95 201.58L54.02 203.86L55.3 205.6L55.64 207.26L57.19 207.6L58.49 208.71L60.34 207.71Z"/>
  <path data-id="field:tiles:44" fill="hsl(44.71, 55%, 78%)" fill-rule="evenodd" d="M190.91 45.44L189.62 50.52L189.45 54L189.92 58.02L196.67 55.94L200.73 53.99L199.85 50.91L200.12 48.53L198.26 47.47L197.09 45.6L194.54 46.05Z"/>
  <path data-id="field:tiles:45" fill="hsl(332.85, 55%, 78%)" fill-rule="evenodd" d="M36.19 55.51L39.6 55.5L43.98 53.82L41.54 50.46L39.88 48.53L38.3 49.41L36.92 49.53L36.5 50.72L35.52 51.63L36.09 53.14Z"/>
  <path data-id="field:tiles:46" fill="hsl(319.22, 55%, 78%)" fill-rule="evenodd" d="M93.49 19.14L95.63 23.11L99.86 28.76L102.61 25.78L104.51 22.87L106.46 18L103.16 16.36L101.37 14.5L99.32 15.32L97.19 15.09L96.01 17.17Z"/>
  <path data-id="field:tiles:47" fill="hsl(50.23, 55%, 78%)" fill-rule="evenodd" d="M226.83 109.27L224.35 109.85L220.4 111.14L222.95 115.07L225.71 117.09L227.19 115.23L228.54 114.34L228.27 113.03L228.64 111.82L227.59 110.92Z"/>
  <path data-id="field:tiles:48" fill="hsl(8.46, 55%, 78%)" fill-rule="evenodd" d="M124.09 226.62L123.87 223.65L123.39 218.78L120.46 219.46L117.95 220.67L114.6 223.67L116.71 226.03L117.62 227.92L119.32 227.79L120.78 228.42L122.03 227.28Z"/>
  <path data-id="field:tiles:49" fill="hsl(139.16, 55%, 78%)" fill-rule="evenodd" d="M218.13 74.67L216.14 75.18L212.82 75.6L213.19 77.75L214.08 79.81L216.93 82.83L218.89 80.51L220.38 79.32L219.87 77.94L220.04 76.68L218.94 75.99Z"/>
  <path data-id="field:tiles:50" fill="hsl(7.59, 55%, 78%)" fill-rule="evenodd" d="M14.88 146.09L16.78 146.18L19.73 146.9L20.26 142.78L19.77 140.59L18.81 138.64L15.87 140.25L13.97 141.01L14.09 142.55L13.61 143.75L14.48 144.68Z"/>
  <path data-id="wall:0" fill="#c0392b" fill-rule="evenodd" d="M181.77 212.36L181.75 212.34L180.61 210.65L172.41 196.99L167.26 186.49L161.03 170.25L157.99 159.64L155.43 147.47L153.7 134.08L153.1 120L153.7 105.92L155.43 92.53L157.99 80.36L161.03 69.75L167.26 53.51L172.41 43.01L180.61 29.35L181.75 27.66L181.77 27.64L181.77 27.64L181.75 27.66L180.65 29.37L172.77 43.21L167.85 53.76L161.9 70.04L159.01 80.61L156.57 92.72L154.94 106.03L154.36 120L154.94 133.97L156.57 147.28L159.01 159.39L161.9 169.96L167.85 186.24L172.77 196.79L180.65 210.63L181.75 212.34L181.77 212.36Z"/>
  <path data-id="wall:1" fill="#27ae60" fill-rule="evenodd" d="M226.93 89.8L226.91 89.81L224.95 90.37L209.41 93.95L197.84 95.6L180.47 96.51L169.44 96.12L157.07 94.8L143.8 92.29L130.23 88.52L117.03 83.59L104.82 77.82L94.04 71.62L84.89 65.45L71.37 54.51L62.98 46.37L52.51 34.34L51.26 32.73L51.25 32.72L51.25 32.72L51.26 32.73L52.55 34.31L63.27 46.08L71.79 54.02L85.43 64.71L94.59 70.73L105.35 76.79L117.51 82.45L130.62 87.32L144.09 91.09L157.25 93.65L169.52 95.08L180.47 95.59L197.78 94.96L209.34 93.54L224.93 90.32L226.91 89.8L226.93 89.8Z"/>
  <path data-id="wall:2" fill="#2f6fb7" fill-rule="evenodd" d="M124.32 8.97L124.32 9L124.25 11.03L122.85 26.91L120.84 38.43L116.34 55.23L112.57 65.6L107.49 76.95L101.01 88.8L93.22 100.55L84.46 111.58L75.19 121.4L65.97 129.74L57.27 136.54L42.68 146.01L32.35 151.48L17.68 157.72L15.76 158.41L15.74 158.42L15.74 158.42L15.76 158.41L17.66 157.67L32.17 151.11L42.35 145.46L56.73 135.79L65.29 128.94L74.38 120.57L83.52 110.77L92.2 99.8L99.95 88.16L106.45 76.43L111.6 65.2L115.47 54.95L120.22 38.29L122.44 26.85L124.2 11.03L124.32 9L124.32 8.97Z"/>
  <path data-id="wall:3" fill="#8e44ad" fill-rule="evenodd" d="M15.74 81.58L15.76 81.59L17.68 82.28L32.35 88.52L42.68 93.99L57.27 103.46L65.97 110.26L75.19 118.6L84.46 128.42L93.22 139.45L101.01 151.2L107.49 163.05L112.57 174.4L116.34 184.77L120.84 201.57L122.85 213.09L124.25 228.97L124.32 231L124.32 231.03L124.32 231.03L124.32 231L124.2 228.97L122.44 213.15L120.22 201.71L115.47 185.05L111.6 174.8L106.45 163.57L99.95 151.84L92.2 140.2L83.52 129.23L74.38 119.43L65.29 111.06L56.73 104.21L42.35 94.54L32.17 88.89L17.66 82.33L15.76 81.59L15.74 81.58Z"/>
  <path data-id="wall:4" fill="#d68910" fill-rule="evenodd" d="M51.25 207.28L51.26 207.27L52.51 205.66L62.98 193.63L71.37 185.49L84.89 174.55L94.04 168.38L104.82 162.18L117.03 156.41L130.23 151.48L143.8 147.71L157.07 145.2L169.44 143.88L180.47 143.49L197.84 144.4L209.41 146.05L224.95 149.63L226.91 150.19L226.93 150.2L226.93 150.2L226.91 150.2L224.93 149.68L209.34 146.46L197.78 145.04L180.47 144.41L169.52 144.92L157.25 146.35L144.09 148.91L130.62 152.68L117.51 157.55L105.35 163.21L94.59 169.27L85.43 175.29L71.79 185.98L63.27 193.92L52.55 205.69L51.26 207.27L51.25 207.28Z"/>
</svg>
